<?xml version="1.0" encoding="UTF-8"?>
<!DOCTYPE svg PUBLIC "-//W3C//DTD SVG 1.1//EN" "http://www.w3.org/Graphics/SVG/1.1/DTD/svg11.dtd">
<!-- Creator: CorelDRAW 2017 -->
<svg xmlns="http://www.w3.org/2000/svg" xml:space="preserve" width="232.172mm" height="87.518mm" version="1.1" style="shape-rendering:geometricPrecision; text-rendering:geometricPrecision; image-rendering:optimizeQuality; fill-rule:evenodd; clip-rule:evenodd"
viewBox="0 0 23217.2 8751.8"
 xmlns:xlink="http://www.w3.org/1999/xlink">
 <defs>
  <style type="text/css">
   <![CDATA[
    .str0 {stroke:black;stroke-width:7.62;stroke-miterlimit:22.9256}
    .str3 {stroke:#058CCC;stroke-width:7.62;stroke-miterlimit:22.9256}
    .str4 {stroke:#413080;stroke-width:7.62;stroke-miterlimit:22.9256}
    .str5 {stroke:#51C90C;stroke-width:7.62;stroke-miterlimit:22.9256}
    .str6 {stroke:#E31E24;stroke-width:7.62;stroke-miterlimit:22.9256}
    .str2 {stroke:#EF7F1A;stroke-width:7.62;stroke-miterlimit:22.9256}
    .str7 {stroke:#FEFEFE;stroke-width:7.62;stroke-miterlimit:22.9256}
    .str1 {stroke:yellow;stroke-width:7.62;stroke-miterlimit:22.9256}
    .fil0 {fill:none}
    .fil2 {fill:black}
    .fil5 {fill:#058CCC}
    .fil6 {fill:#413080}
    .fil7 {fill:#51C90C}
    .fil8 {fill:#E31E24}
    .fil4 {fill:#EF7F1A}
    .fil9 {fill:#F4F4F4}
    .fil3 {fill:yellow}
    .fil1 {fill:#FEFEFE;fill-rule:nonzero}
    .fil10 {fill:white;fill-rule:nonzero}
   ]]>
  </style>
 </defs>
 <g id="Capa_x0020_1">
  <metadata id="CorelCorpID_0Corel-Layer"/>
  <g id="_650077328">
   <rect class="fil0" x="0.01" y="0.02" width="23217.19" height="8751.77"/>
   <path class="fil1" d="M8464.03 1442.8l0 485.92 1082.28 0 0 2168.23 489.6 0 0 -2168.23 1078.59 0 0 -485.92 -2650.47 0zm5080.06 2142.46c0,14.73 -11.04,25.77 -22.09,25.77l-1627.09 0c-14.72,0 -25.77,-11.04 -25.77,-25.77l0 -2142.46 -485.92 0 0 2142.46c0,283.46 228.24,511.69 511.69,511.69l1627.09 0c279.77,0 511.69,-228.23 511.69,-511.69l0 -2142.46 -489.6 0 0 2142.46zm894.53 -2135.09l0 2646.78 485.92 0 0 -909.26 11.04 3.68 1638.13 -3.68c283.46,0 515.37,-231.91 515.37,-511.68l0 -714.16c0,-279.77 -231.91,-511.68 -515.37,-511.68l-2135.09 0zm2160.86 1225.84c0,14.72 -11.04,25.77 -25.77,25.77l-1623.41 0c-14.72,0 -25.76,-11.05 -25.76,-25.77l0 -714.16c0,-14.72 11.04,-25.76 25.76,-25.76l1623.41 0c14.73,0 25.77,11.04 25.77,25.76l0 714.16zm3397.75 -714.16c0,-279.77 -231.92,-511.68 -515.37,-511.68l-2135.09 0 0 2646.78 485.91 0 0 -909.26 11.05 0 857.72 0 765.69 909.26 530.09 0 0 -125.16 -658.93 -784.1 143.56 0c283.45,0 515.37,-231.91 515.37,-511.68l0 -714.16zm-2138.78 739.93c-14.72,0 -25.77,-11.05 -25.77,-25.77l0 -714.16c0,-14.72 11.05,-25.76 25.77,-25.76l1623.41 0c14.73,0 25.77,11.04 25.77,25.76l0 714.16c0,14.72 -11.04,25.77 -25.77,25.77l-1623.41 0zm3033.31 -1258.98c-283.45,0 -511.69,228.24 -511.69,511.69l0 1630.77c0,283.46 228.24,511.69 511.69,511.69l1627.09 0c279.77,0 511.69,-228.23 511.69,-511.69l0 -1630.77c0,-283.45 -231.92,-511.69 -511.69,-511.69l-1627.09 0zm0 2168.23c-14.72,0 -25.77,-11.04 -25.77,-25.77l0 -1630.77c0,-14.72 11.05,-25.77 25.77,-25.77l1627.09 0c11.05,0 22.09,11.05 22.09,25.77l0 1630.77c0,14.73 -11.04,25.77 -22.09,25.77l-1627.09 0z"/>
   <path class="fil1" d="M10212.32 5047.5l0 -323.25 -1417.9 0c-188.56,0 -340.39,151.83 -340.39,340.39l0 1084.86c0,188.56 151.83,340.39 340.39,340.39l1417.9 0 0 -323.25 -1417.9 0c-9.79,0 -17.14,-7.35 -17.14,-17.14l0 -1084.86c0,-9.79 7.35,-17.14 17.14,-17.14l1417.9 0zm2015.43 22.04c0,-186.12 -154.28,-340.39 -342.84,-340.39l-1420.35 0 0 1760.74 323.25 0 0 -604.87 7.35 0 570.59 0 509.36 604.87 352.64 0 0 -83.26 -438.35 -521.61 95.51 0c188.56,0 342.84,-154.28 342.84,-340.4l0 -475.08zm-1422.8 492.22c-9.79,0 -17.14,-7.34 -17.14,-17.14l0 -475.08c0,-9.8 7.35,-17.14 17.14,-17.14l1079.96 0c9.79,0 17.14,7.34 17.14,17.14l0 475.08c0,9.8 -7.35,17.14 -17.14,17.14l-1079.96 0zm3308.44 -835.06l-1621.15 0 0 1763.19 1621.15 0 0 -323.25 -1295.45 0 0 -396.72 1043.22 0 0 -323.25 -1043.22 0 0 -396.72 1295.45 0 0 -323.25zm595.08 -2.45c-188.56,0 -340.39,151.83 -340.39,340.39l0 1425.25 323.25 0 0 -592.63 1114.24 0 0 592.63 325.7 0 0 -1425.25c0,-188.56 -154.28,-340.39 -342.84,-340.39l-1079.96 0zm-17.14 849.76l0 -509.37c0,-9.79 7.34,-17.14 17.14,-17.14l1079.96 0c9.79,0 17.14,7.35 17.14,17.14l0 509.37 -1114.24 0zm1630.95 -849.76l0 323.25 719.97 0 0 1442.39 325.7 0 0 -1442.39 717.52 0 0 -323.25 -1763.19 0zm1949.31 1765.64l323.25 0 0 -1765.64 -323.25 0 0 1765.64zm1650.54 -392.64l-790.99 -1373 -374.68 0 1018.73 1765.64 291.42 0 1018.74 -1765.64 -374.68 0 -788.54 1373zm1677.48 -1373c-188.56,0 -340.39,151.83 -340.39,340.39l0 1084.86c0,188.56 151.83,340.39 340.39,340.39l1082.41 0c186.11,0 340.39,-151.83 340.39,-340.39l0 -1084.86c0,-188.56 -154.28,-340.39 -340.39,-340.39l-1082.41 0zm0 1442.39c-9.79,0 -17.14,-7.35 -17.14,-17.14l0 -1084.86c0,-9.79 7.35,-17.14 17.14,-17.14l1082.41 0c7.35,0 14.69,7.35 14.69,17.14l0 1084.86c0,9.79 -7.34,17.14 -14.69,17.14l-1082.41 0z"/>
   <g>
    <path class="fil2 str0" d="M3806.17 1300.96c-149.65,-12.28 -395.67,24.69 -563.6,61.26 -431.61,94 -831.63,318.96 -1151.65,617.55 -111.23,103.76 -302.62,319.78 -363.33,437.06 -84.66,134.17 -230.94,399.9 -270.13,555.49 -44.96,178.47 -77.13,225.09 -107.35,446.57 -64.06,469.5 -6.88,1028.51 271.87,1519.78 101.18,210.69 302.44,457.19 459.2,606.71 173.62,165.63 339.33,281.41 524.92,385.47 138.88,77.85 408.09,191.67 572.32,226.81 113.66,24.31 180.18,41.83 300.63,57.11l310.27 22.12 279.25 -16.62c311.35,-34.3 619.16,-130.91 903.07,-284.77 334.04,-181.04 709.88,-509.85 892.38,-826.37 27.3,-31.82 61.19,-98.55 82.15,-134.51 78.15,-134.01 136.65,-283.57 188.55,-422.35 11.77,-31.48 12.77,-41.93 21.68,-76.5 6.6,-25.62 16.85,-43.75 23.31,-71.11 89.39,-379.24 114.89,-684.76 39.87,-1096.58 -37.13,-203.85 -134.33,-515.25 -250.8,-706.5 -321.82,-552.61 -731.01,-920.4 -1260.59,-1124.28 -130.56,-50.27 -175.34,-55.65 -288.94,-96.1 -27.35,-9.75 -49.64,-10.38 -77.99,-17.47l-221.99 -41.55c-93.54,-11.3 -210.92,-25.86 -313.1,-21.22z"/>
    <path class="fil3 str1" d="M5968.77 2601.58c116.47,191.25 213.66,502.65 250.79,706.5 75.03,411.82 49.53,717.34 -39.86,1096.58 -6.47,27.36 -16.71,45.49 -23.31,71.11 -8.91,34.57 -9.92,45.02 -21.68,76.5 -51.91,138.78 -110.4,288.34 -188.56,422.35 -20.96,35.96 -54.84,102.69 -82.15,134.51 20.59,28.21 411.4,276.16 474.15,318.06 80.39,53.69 157.52,103.3 237.03,155.3 41.11,26.89 76.75,48.62 118.65,76.66 33.18,22.21 96.29,58.84 122.48,84.74 68.78,-58.34 263.91,-465.65 312.31,-581.61 39.9,-95.61 119.27,-314.25 145.32,-410.73l73.21 -315.12c5.92,-34.23 12.46,-73.63 17.45,-107.28 54.17,-365.14 67.93,-739.45 -0.78,-1133.46 -46.96,-269.23 -99.98,-475.85 -199.86,-733.39 -19.61,-50.55 -106.7,-233.38 -111.24,-263.61l-76.93 -142.45c-166.83,89.99 -333.98,180.47 -501.41,269.31 -83.79,44.46 -166.97,90.08 -250.7,134.65 -58.82,31.31 -211.91,105.18 -254.91,141.38z"/>
    <path class="fil4 str2" d="M3803.91 160.94l2.26 1140.02c102.18,-4.64 219.56,9.92 313.1,21.22l221.99 41.55c28.35,7.09 50.64,7.72 77.99,17.47 113.6,40.45 158.38,45.83 288.94,96.1 529.58,203.88 938.77,571.67 1260.59,1124.28 43.01,-36.2 196.1,-110.07 254.91,-141.38 83.73,-44.57 166.92,-90.19 250.71,-134.65 167.42,-88.84 334.58,-179.32 501.4,-269.31l-93.99 -174.05c-16.14,-12.75 -28.43,-36.08 -39.55,-53.77 -171.14,-272.29 -387.88,-522.26 -621.68,-736.18 -258.05,-236.14 -613.61,-470 -936.14,-612.15 -154.83,-68.23 -346.34,-141.79 -506.95,-184.09 -18.63,-4.91 -31.67,-7.41 -50.08,-12.58 -221.87,-62.36 -466.89,-105.78 -698.03,-116.77 -69.16,-3.29 -154.81,-12.78 -225.47,-5.71z"/>
    <path class="fil5 str3" d="M1621.98 4938.67l-1001.96 541.32c384.94,730.62 1089.01,1355.74 1840.83,1640.93 156.88,59.5 254.75,96.66 427.72,138.72 187.83,45.68 230.54,56.46 442.79,87.83 80.49,11.89 389.53,40.17 461.57,28.93l-3.61 -1139.51 -310.27 -22.12c-120.45,-15.28 -186.97,-32.8 -300.63,-57.11 -164.23,-35.14 -433.44,-148.96 -572.32,-226.81 -185.59,-104.06 -351.3,-219.84 -524.92,-385.47 -156.76,-149.52 -358.02,-396.02 -459.2,-606.71z"/>
    <path class="fil6 str4" d="M777.96 1791.34c-110.64,133.21 -293.65,531.97 -361.49,708.45 -35.92,93.45 -112.82,343.24 -128.78,425.51 -23.53,121.28 -43.98,182.3 -64.71,332.21 -107.11,774.87 21.61,1513.45 397.04,2222.48l1001.96 -541.32c-278.75,-491.27 -335.93,-1050.28 -271.87,-1519.78 30.22,-221.48 62.39,-268.1 107.35,-446.57 39.19,-155.59 185.47,-421.32 270.13,-555.49l-949.63 -625.49z"/>
    <path class="fil7 str5" d="M5864 5109.13c-182.49,316.52 -558.34,645.33 -892.38,826.37 -283.91,153.86 -591.71,250.47 -903.06,284.77l-279.25 16.62 3.6 1139.51c195.92,13.54 553.25,-33.99 754.92,-77.7 207.62,-44.99 402.53,-104.15 602.16,-185.46 46.79,-19.07 180.53,-86.71 214.16,-91l268.34 -144.77c17.57,-18.45 162.95,-104.73 199.54,-129.53 62.22,-42.18 121.8,-85.72 181.11,-131.64 288.42,-223.31 628.43,-574.14 803.17,-872.41 -26.19,-25.9 -89.3,-62.53 -122.48,-84.74 -41.9,-28.04 -77.54,-49.77 -118.65,-76.66 -79.51,-52 -156.64,-101.61 -237.03,-155.3 -62.75,-41.9 -453.56,-289.85 -474.15,-318.06z"/>
    <path class="fil8 str6" d="M2224.83 515.4l-269.29 145.27c-17.67,18.49 -158.26,101.91 -194.11,126.28 -342.57,232.83 -636.91,520.61 -880.33,850.56 -26.48,35.9 -88.55,119.64 -103.14,153.83l949.63 625.49c60.71,-117.28 252.1,-333.3 363.33,-437.06 320.02,-298.59 720.04,-523.55 1151.65,-617.55 167.93,-36.57 413.95,-73.54 563.6,-61.26l-2.26 -1140.02c-118.02,-26.52 -611.77,45.1 -758.09,76.58 -211.26,45.45 -410.52,106.06 -613.32,188.93 -46.69,19.07 -172.64,83.85 -207.67,88.95z"/>
    <path class="fil9 str7" d="M1668.07 3169.16l3722.55 -837.45 -1252.67 3526.59c-324.75,-1321.6 -1117.49,-2244.02 -2469.88,-2689.14z"/>
   </g>
   <path class="fil10" d="M9398.37 8197.55l-143.26 -144.73c-80.41,73.09 -152.04,119.87 -268.99,119.87 -175.43,0 -296.77,-146.18 -296.77,-321.61l0 -2.93c0,-175.42 124.27,-318.69 296.77,-318.69 102.33,0 182.73,43.86 261.68,115.49l143.26 -165.19c-95.02,-93.56 -210.51,-157.89 -403.48,-157.89 -314.31,0 -533.59,238.29 -533.59,529.21l0 2.92c0,293.84 223.67,526.28 524.82,526.28 197.35,0 314.31,-70.17 419.56,-182.73zm628.61 -400.56l0 -232.44c-131.57,-5.85 -204.67,64.32 -249.98,172.5l0 -157.88 -222.21 0 0 783.57 222.21 0 0 -289.45c0,-187.13 90.63,-276.3 238.28,-276.3l11.7 0zm847.89 195.89l0 -2.92c0,-222.21 -119.87,-425.41 -381.55,-425.41 -228.05,0 -387.4,184.2 -387.4,407.87l0 2.92c0,239.75 173.96,404.94 409.33,404.94 141.8,0 247.06,-55.55 320.15,-146.19l-127.18 -112.56c-61.4,57.01 -115.49,80.4 -190.05,80.4 -99.41,0 -169.58,-52.63 -191.51,-153.5l545.29 0c1.46,-20.46 2.92,-33.62 2.92,-55.55zm-216.36 -83.33l-334.77 0c17.54,-100.87 77.48,-166.65 169.58,-166.65 93.56,0 152.04,67.25 165.19,166.65zm1055.49 453.19l0 -454.65c0,-211.97 -106.72,-337.69 -349.39,-337.69 -133.03,0 -217.82,24.85 -304.08,62.86l55.56 169.58c71.63,-26.32 131.57,-42.4 216.36,-42.4 111.1,0 168.11,51.17 168.11,143.27l0 13.15c-55.55,-19 -112.56,-32.16 -191.5,-32.16 -185.66,0 -315.77,78.94 -315.77,249.99l0 2.92c0,154.96 121.33,239.75 268.99,239.75 108.18,0 182.73,-39.47 236.82,-99.41l0 84.79 214.9 0zm-210.51 -276.3c0,80.41 -70.17,137.42 -173.97,137.42 -71.63,0 -121.33,-35.08 -121.33,-95.02l0 -2.93c0,-70.17 58.47,-108.18 153.49,-108.18 54.09,0 103.8,11.7 141.81,29.24l0 39.47zm1119.81 276.3l0 -507.28c0,-179.81 -97.95,-290.91 -266.07,-290.91 -112.56,0 -178.35,59.94 -229.51,125.72l0 -111.1 -222.21 0 0 783.57 222.21 0 0 -437.11c0,-105.25 54.09,-159.34 138.88,-159.34 84.78,0 134.49,54.09 134.49,159.34l0 437.11 222.21 0zm980.93 0l0 -1067.18 -222.21 0 0 385.94c-52.63,-62.86 -125.72,-116.95 -244.14,-116.95 -185.66,0 -356.7,143.26 -356.7,404.94l0 2.93c0,261.67 173.97,404.94 356.7,404.94 115.49,0 190.05,-54.09 244.14,-127.19l0 112.57 222.21 0zm-219.29 -390.32c0,130.1 -86.25,216.36 -190.04,216.36 -103.8,0 -191.51,-86.26 -191.51,-216.36l0 -2.93c0,-131.57 87.71,-216.36 191.51,-216.36 103.79,0 190.04,86.25 190.04,216.36l0 2.93zm1228 0l0 -2.93c0,-225.13 -179.82,-404.94 -422.49,-404.94 -244.14,0 -425.41,182.73 -425.41,407.87l0 2.92c0,225.13 179.81,404.94 422.49,404.94 244.13,0 425.41,-182.73 425.41,-407.86zm-219.29 2.92c0,115.49 -76.02,213.44 -203.2,213.44 -122.8,0 -206.13,-100.88 -206.13,-216.36l0 -2.93c0,-115.49 76.02,-213.43 203.21,-213.43 122.79,0 206.12,100.87 206.12,216.36l0 2.92zm1641.7 -2.92l0 -2.93c0,-261.68 -173.96,-404.94 -356.7,-404.94 -115.49,0 -190.04,54.09 -244.13,127.18l0 -112.56 -222.21 0 0 1017.47 222.21 0 0 -336.23c52.62,62.86 125.72,116.95 244.13,116.95 185.66,0 356.7,-143.27 356.7,-404.94zm-222.2 0c0,131.57 -87.72,216.36 -191.51,216.36 -103.8,0 -190.05,-86.26 -190.05,-216.36l0 -2.93c0,-130.11 86.25,-216.36 190.05,-216.36 103.79,0 191.51,86.25 191.51,216.36l0 2.93zm1059.87 390.32l0 -454.65c0,-211.97 -106.72,-337.69 -349.39,-337.69 -133.03,0 -217.82,24.85 -304.08,62.86l55.56 169.58c71.63,-26.32 131.57,-42.4 216.36,-42.4 111.1,0 168.11,51.17 168.11,143.27l0 13.15c-55.55,-19 -112.56,-32.16 -191.5,-32.16 -185.66,0 -315.77,78.94 -315.77,249.99l0 2.92c0,154.96 121.33,239.75 268.99,239.75 108.18,0 182.73,-39.47 236.82,-99.41l0 84.79 214.9 0zm-210.51 -276.3c0,80.41 -70.17,137.42 -173.97,137.42 -71.63,0 -121.33,-35.08 -121.33,-95.02l0 -2.93c0,-70.17 58.47,-108.18 153.49,-108.18 54.09,0 103.8,11.7 141.81,29.24l0 39.47zm874.21 -289.45l0 -232.44c-131.57,-5.85 -204.67,64.32 -249.98,172.5l0 -157.88 -222.21 0 0 783.57 222.21 0 0 -289.45c0,-187.13 90.63,-276.3 238.28,-276.3l11.7 0zm776.26 565.75l0 -454.65c0,-211.97 -106.72,-337.69 -349.39,-337.69 -133.03,0 -217.82,24.85 -304.08,62.86l55.56 169.58c71.63,-26.32 131.57,-42.4 216.36,-42.4 111.1,0 168.11,51.17 168.11,143.27l0 13.15c-55.55,-19 -112.56,-32.16 -191.5,-32.16 -185.66,0 -315.77,78.94 -315.77,249.99l0 2.92c0,154.96 121.33,239.75 268.99,239.75 108.18,0 182.73,-39.47 236.82,-99.41l0 84.79 214.9 0zm-210.51 -276.3c0,80.41 -70.17,137.42 -173.97,137.42 -71.63,0 -121.33,-35.08 -121.33,-95.02l0 -2.93c0,-70.17 58.47,-108.18 153.49,-108.18 54.09,0 103.8,11.7 141.81,29.24l0 39.47zm1280.62 244.14l0 -178.35c-32.16,17.54 -68.71,27.77 -109.64,27.77 -49.71,0 -71.64,-24.85 -71.64,-76.01l0 -334.78 184.2 0 0 -190.04 -184.2 0 0 -200.28 -222.2 0 0 200.28 -93.57 0 0 190.04 93.57 0 0 371.32c0,181.28 92.09,235.37 228.05,235.37 74.56,0 128.65,-17.55 175.43,-45.32zm954.61 -358.16l0 -2.93c0,-225.13 -179.82,-404.94 -422.49,-404.94 -244.14,0 -425.41,182.73 -425.41,407.87l0 2.92c0,225.13 179.81,404.94 422.49,404.94 244.13,0 425.41,-182.73 425.41,-407.86zm-219.29 2.92c0,115.49 -76.02,213.44 -203.2,213.44 -122.8,0 -206.13,-100.88 -206.13,-216.36l0 -2.93c0,-115.49 76.02,-213.43 203.21,-213.43 122.79,0 206.12,100.87 206.12,216.36l0 2.92zm1168.05 387.4l0 -1067.18 -222.21 0 0 385.94c-52.63,-62.86 -125.72,-116.95 -244.14,-116.95 -185.66,0 -356.7,143.26 -356.7,404.94l0 2.93c0,261.67 173.97,404.94 356.7,404.94 115.49,0 190.05,-54.09 244.14,-127.19l0 112.57 222.21 0zm-219.29 -390.32c0,130.1 -86.25,216.36 -190.04,216.36 -103.8,0 -191.51,-86.26 -191.51,-216.36l0 -2.93c0,-131.57 87.71,-216.36 191.51,-216.36 103.79,0 190.04,86.25 190.04,216.36l0 2.93zm1228 0l0 -2.93c0,-225.13 -179.82,-404.94 -422.49,-404.94 -244.14,0 -425.41,182.73 -425.41,407.87l0 2.92c0,225.13 179.81,404.94 422.49,404.94 244.13,0 425.41,-182.73 425.41,-407.86zm-219.29 2.92c0,115.49 -76.02,213.44 -203.2,213.44 -122.8,0 -206.13,-100.88 -206.13,-216.36l0 -2.93c0,-115.49 76.02,-213.43 203.21,-213.43 122.79,0 206.12,100.87 206.12,216.36l0 2.92zm954.61 149.11l0 -2.92c0,-143.27 -127.18,-195.9 -236.82,-232.44 -84.79,-29.24 -159.35,-49.71 -159.35,-93.56l0 -2.93c0,-30.7 27.78,-54.09 81.86,-54.09 57.02,0 134.5,27.78 211.98,73.1l84.79 -153.5c-84.79,-57.01 -192.97,-90.64 -292.38,-90.64 -157.88,0 -286.53,89.18 -286.53,248.52l0 2.93c0,152.03 124.26,203.2 233.9,235.36 86.25,26.32 162.27,42.4 162.27,90.64l0 2.92c0,35.09 -29.24,58.48 -93.56,58.48 -73.09,0 -162.27,-32.16 -247.06,-93.56l-95.02 146.19c103.79,81.86 226.59,118.41 336.23,118.41 169.58,0 299.69,-78.94 299.69,-252.91z"/>
  </g>
  <rect class="fil0" width="23217.2" height="8751.8"/>
 </g>
</svg>
